<svg width="185" height="34" viewBox="0 0 185 34" fill="none" xmlns="http://www.w3.org/2000/svg">
<path d="M10.9692 26.315H0.000163443V21.534H10.9702C11.2972 21.534 11.5782 21.417 11.8132 21.182C11.9263 21.0728 12.0158 20.9415 12.0761 20.7964C12.1365 20.6512 12.1665 20.4952 12.1642 20.338C12.1642 19.998 12.0472 19.776 11.8132 19.67C11.5462 19.5582 11.2585 19.5043 10.9692 19.512H5.97716C5.17338 19.518 4.37715 19.3565 3.63916 19.038C2.9311 18.7337 2.28708 18.298 1.74116 17.754C1.19926 17.1995 0.764015 16.55 0.457163 15.838C0.149648 15.0972 -0.00576512 14.3021 0.000163443 13.5C0.000163443 12.668 0.153163 11.89 0.457163 11.163C0.76131 10.4545 1.197 9.81017 1.74116 9.264C2.28016 8.725 2.91216 8.304 3.63916 7.999C4.37708 7.68011 5.17331 7.51834 5.97716 7.524H15.6972V12.305H5.97716C5.64916 12.305 5.36716 12.422 5.13316 12.657C5.0202 12.7661 4.93077 12.8972 4.8704 13.0422C4.81004 13.1872 4.78001 13.343 4.78216 13.5C4.78216 13.84 4.89916 14.133 5.13316 14.38C5.36716 14.614 5.64916 14.731 5.97716 14.731H10.9692C11.7892 14.731 12.5632 14.871 13.2892 15.153C14.0162 15.423 14.6492 15.803 15.1882 16.296C15.7272 16.788 16.1552 17.379 16.4712 18.071C16.7872 18.762 16.9462 19.518 16.9462 20.338C16.9519 21.1419 16.7901 21.9381 16.4712 22.676C16.1615 23.3812 15.7269 24.0246 15.1882 24.575C14.6419 25.1188 13.9975 25.5542 13.2892 25.858C12.5632 26.163 11.7892 26.315 10.9692 26.315ZM28.9512 26.315C27.7912 26.315 26.7012 26.098 25.6822 25.665C24.6815 25.2328 23.7695 24.6191 22.9922 23.855C22.2281 23.0776 21.6144 22.1656 21.1822 21.165C20.7456 20.1305 20.5245 19.0178 20.5322 17.895V12.305H18.1942V7.525H20.5322V0.000999987H25.3122V7.524H32.5902V12.305H25.3132V17.895C25.3132 18.399 25.4072 18.874 25.5942 19.319C25.7822 19.752 26.0392 20.133 26.3672 20.461C26.7019 20.7937 27.0952 21.0619 27.5272 21.252C27.9732 21.44 28.4472 21.534 28.9512 21.534H32.5912V26.315H28.9512ZM49.1312 24.118C48.7452 24.469 48.3282 24.803 47.8832 25.12C47.4492 25.424 46.9932 25.694 46.5122 25.928C46.032 26.1508 45.5317 26.3276 45.0182 26.456C44.5142 26.596 43.9982 26.666 43.4712 26.666C42.3112 26.666 41.2212 26.462 40.2012 26.051C39.1997 25.6524 38.2861 25.0613 37.5122 24.311C36.7502 23.549 36.1472 22.63 35.7022 21.551C35.2682 20.461 35.0522 19.243 35.0522 17.895V7.489H39.8322V17.895C39.8322 18.528 39.9262 19.096 40.1142 19.6C40.3132 20.092 40.5772 20.508 40.9042 20.848C41.2332 21.188 41.6142 21.446 42.0472 21.622C42.4932 21.797 42.9672 21.885 43.4712 21.885C43.9632 21.885 44.4262 21.774 44.8602 21.551C45.3001 21.3209 45.6935 21.0109 46.0202 20.637C46.3482 20.262 46.6062 19.84 46.7932 19.372C46.9812 18.892 47.0752 18.399 47.0752 17.895V7.489H51.8732V26.315H50.7132L49.1312 24.118ZM73.7412 26.315H72.5812L70.7172 23.731C70.2602 24.141 69.7742 24.528 69.2582 24.891C68.751 25.2445 68.2159 25.5562 67.6582 25.823C67.0962 26.081 66.5162 26.286 65.9182 26.438C65.3327 26.5905 64.7301 26.6674 64.1252 26.667C62.8402 26.6745 61.5669 26.4232 60.3812 25.928C59.2397 25.4366 58.2019 24.7328 57.3232 23.854C56.444 22.9454 55.7459 21.8777 55.2662 20.708C54.7622 19.488 54.5102 18.165 54.5102 16.735C54.5102 15.317 54.7622 13.999 55.2662 12.78C55.7428 11.6033 56.4411 10.5291 57.3232 9.616C58.198 8.72796 59.2364 8.01757 60.3812 7.524C61.5641 7.0178 62.8385 6.76046 64.1252 6.768C64.5472 6.768 64.9812 6.803 65.4262 6.874C65.8832 6.944 66.3232 7.061 66.7452 7.225C67.1782 7.377 67.5822 7.583 67.9572 7.84C68.3322 8.098 68.6492 8.415 68.9072 8.79V0H73.7412V26.315ZM68.9072 16.735C68.9072 16.079 68.7772 15.445 68.5202 14.836C68.2848 14.2326 67.9389 13.6785 67.5002 13.202C67.0705 12.7242 66.551 12.3358 65.9712 12.059C65.4 11.7666 64.7669 11.6157 64.1252 11.619C63.4692 11.619 62.8482 11.737 62.2622 11.971C61.6927 12.2022 61.1778 12.5496 60.7502 12.991C60.3115 13.4512 59.9707 13.9955 59.7482 14.591C59.5022 15.223 59.3792 15.938 59.3792 16.735C59.3792 17.426 59.5022 18.083 59.7492 18.704C59.9824 19.3042 60.3214 19.8576 60.7502 20.338C61.1842 20.808 61.6882 21.176 62.2622 21.446C62.8482 21.716 63.4692 21.85 64.1252 21.85C64.7648 21.8538 65.3967 21.7094 65.9712 21.428C66.5463 21.1435 67.0648 20.7565 67.5012 20.286C67.9346 19.8054 68.2796 19.2519 68.5202 18.651C68.7782 18.03 68.9072 17.391 68.9072 16.735ZM81.9492 33.487V28.653L84.6212 28.688C85.0912 28.688 85.5412 28.612 85.9752 28.459C86.4031 28.3098 86.806 28.0967 87.1702 27.827C87.5452 27.557 87.8732 27.235 88.1552 26.86C88.4352 26.497 88.6652 26.098 88.8402 25.665C88.3132 25.887 87.7742 26.11 87.2232 26.333C86.7056 26.5513 86.1499 26.6648 85.5882 26.667C84.4282 26.667 83.3382 26.461 82.3182 26.051C81.3166 25.6525 80.4031 25.0613 79.6292 24.311C78.8682 23.549 78.2642 22.63 77.8192 21.551C77.3852 20.461 77.1692 19.243 77.1692 17.895V7.489H81.9492V17.895C81.9492 18.563 82.0432 19.149 82.2312 19.653C82.4302 20.145 82.6942 20.561 83.0212 20.901C83.3502 21.229 83.7312 21.475 84.1642 21.639C84.6102 21.803 85.0842 21.885 85.5882 21.885C86.0802 21.885 86.5432 21.774 86.9772 21.551C87.4171 21.3209 87.8105 21.0109 88.1372 20.637C88.4652 20.262 88.7232 19.84 88.9112 19.372C89.0982 18.892 89.1912 18.399 89.1912 17.895V7.489H94.0262V23.942C94.0232 25.2239 93.7599 26.4919 93.2522 27.669C92.7634 28.8066 92.0591 29.8389 91.1782 30.709C90.304 31.5811 89.272 32.2792 88.1372 32.766C86.9609 33.2732 85.6921 33.5307 84.4112 33.522L81.9492 33.487Z" fill="white"/>
<path d="M108.035 26.315H97.0666V21.534H108.035C108.364 21.534 108.645 21.417 108.879 21.182C109.114 20.948 109.231 20.667 109.231 20.338C109.231 19.998 109.114 19.776 108.879 19.67C108.612 19.5581 108.324 19.5042 108.035 19.512H103.043C102.239 19.5179 101.443 19.3565 100.705 19.038C99.9966 18.7336 99.3525 18.2979 98.8066 17.754C98.265 17.1994 97.8301 16.5499 97.5236 15.838C97.2161 15.0972 97.0606 14.3021 97.0666 13.5C97.0666 12.668 97.2186 11.89 97.5236 11.163C97.8274 10.4546 98.2628 9.81023 98.8066 9.26398C99.3503 8.7221 99.9952 8.2923 100.705 7.99898C101.443 7.68014 102.239 7.51838 103.043 7.52398H112.764V12.305H103.043C102.715 12.305 102.434 12.422 102.2 12.657C102.086 12.766 101.997 12.897 101.936 13.042C101.876 13.187 101.845 13.3429 101.848 13.5C101.848 13.84 101.965 14.133 102.2 14.38C102.434 14.614 102.715 14.731 103.043 14.731H108.035C108.856 14.731 109.629 14.871 110.356 15.153C111.082 15.423 111.715 15.803 112.254 16.296C112.797 16.7944 113.234 17.3984 113.537 18.071C113.854 18.762 114.012 19.518 114.012 20.338C114.012 21.17 113.854 21.95 113.537 22.676C113.227 23.3812 112.792 24.0246 112.254 24.575C111.708 25.1186 111.064 25.5539 110.356 25.858C109.62 26.1644 108.831 26.3198 108.035 26.315ZM124.067 21.71C124.254 21.768 124.442 21.81 124.629 21.833C124.817 21.844 125.004 21.85 125.192 21.85C125.66 21.85 126.112 21.786 126.545 21.657C126.979 21.527 127.383 21.347 127.758 21.112C128.531 20.6192 129.142 19.9098 129.516 19.072L133.032 22.606C132.588 23.2361 132.069 23.8088 131.485 24.311C130.912 24.8135 130.28 25.2443 129.604 25.594C128.931 25.9472 128.216 26.213 127.477 26.385C126.739 26.573 125.977 26.667 125.192 26.667C123.907 26.6747 122.633 26.4234 121.448 25.928C120.304 25.4476 119.265 24.7492 118.389 23.872C117.507 22.9713 116.809 21.9084 116.332 20.742C115.828 19.524 115.576 18.188 115.576 16.735C115.576 15.247 115.828 13.887 116.332 12.657C116.836 11.427 117.522 10.377 118.389 9.50998C119.267 8.64333 120.306 7.95678 121.448 7.48898C122.636 7.00533 123.908 6.76067 125.192 6.76898C126.735 6.76693 128.255 7.14106 129.621 7.85898C130.301 8.20898 130.934 8.64298 131.52 9.15898C132.104 9.66121 132.623 10.2339 133.067 10.864L124.067 21.71ZM126.528 11.813C126.312 11.7329 126.088 11.6798 125.86 11.655C125.638 11.631 125.415 11.6194 125.192 11.62C124.535 11.62 123.914 11.743 123.328 11.989C122.758 12.2201 122.244 12.5675 121.817 13.009C121.38 13.4771 121.04 14.0261 120.815 14.625C120.569 15.247 120.446 15.95 120.446 16.735C120.446 16.911 120.451 17.11 120.463 17.333C120.487 17.555 120.516 17.783 120.551 18.018C120.598 18.241 120.651 18.458 120.709 18.668C120.768 18.879 120.844 19.067 120.938 19.231L126.528 11.813ZM144.932 26.315C143.809 26.3225 142.696 26.1014 141.662 25.665C140.661 25.2326 139.75 24.619 138.973 23.855C138.208 23.0776 137.594 22.1656 137.162 21.165C136.725 20.1303 136.504 19.0178 136.512 17.895V12.305H134.174V7.52498H136.512V0.000976562H141.293V7.52398H148.571V12.305H141.293V17.895C141.293 18.399 141.387 18.874 141.575 19.319C141.762 19.752 142.02 20.133 142.348 20.461C142.676 20.79 143.063 21.053 143.508 21.252C143.953 21.44 144.428 21.534 144.932 21.534H148.571V26.315H144.932ZM161.614 26.315H150.645V21.534H161.614C161.942 21.534 162.223 21.417 162.457 21.182C162.692 20.948 162.809 20.667 162.809 20.338C162.809 19.998 162.692 19.776 162.457 19.67C162.19 19.5582 161.903 19.5043 161.614 19.512H156.621C155.817 19.518 155.021 19.3566 154.284 19.038C153.575 18.7338 152.931 18.2981 152.385 17.754C151.843 17.1995 151.408 16.55 151.102 15.838C150.794 15.0972 150.638 14.3021 150.645 13.5C150.645 12.668 150.797 11.89 151.102 11.163C151.405 10.4545 151.841 9.81014 152.385 9.26398C152.929 8.72187 153.574 8.29205 154.284 7.99898C155.021 7.68005 155.817 7.51828 156.621 7.52398H166.342V12.305H156.621C156.293 12.305 156.012 12.422 155.778 12.657C155.664 12.766 155.575 12.897 155.514 13.042C155.454 13.187 155.423 13.3429 155.426 13.5C155.426 13.84 155.543 14.133 155.778 14.38C156.012 14.614 156.293 14.731 156.621 14.731H161.614C162.434 14.731 163.207 14.871 163.934 15.153C164.66 15.423 165.293 15.803 165.832 16.296C166.375 16.7946 166.812 17.3985 167.116 18.071C167.436 18.7834 167.598 19.5569 167.59 20.338C167.59 21.17 167.432 21.95 167.116 22.676C166.805 23.3811 166.37 24.0244 165.832 24.575C165.286 25.1186 164.642 25.5539 163.934 25.858C163.199 26.1642 162.41 26.3197 161.614 26.315Z" fill="#18A0FB"/>
<path d="M173.083 26.25C178.145 26.25 182.249 22.1459 182.249 17.0833C182.249 12.0207 178.145 7.91666 173.083 7.91666C168.02 7.91666 163.916 12.0207 163.916 17.0833C163.916 22.1459 168.02 26.25 173.083 26.25Z" fill="#0B0C12" stroke="white" stroke-width="1.83333" stroke-linecap="round" stroke-linejoin="round"/>
<path d="M173.084 11.5833V17.0833L176.751 18.9167" stroke="white" stroke-width="1.83333" stroke-linecap="round" stroke-linejoin="round"/>
</svg>
